  0
SECTION
  2
HEADER
  9
$ACADVER
  1
AC1009
  9
$FILLMODE
 70
 0
  9
$SPLFRAME
 70
 1
  9
$EXTMIN
 10
0
 20
0
 30
0.0
  9
$EXTMAX
 10
1058.33
 20
1058.33
 30
0.0
  0
ENDSEC
  0
SECTION
  2
TABLES
  0
TABLE
  2
LAYER
 70
1
  0
LAYER
  2
0
 70
     0
 62
     7
  6
CONTINUOUS
  0
ENDTAB
  0
ENDSEC
  0
SECTION
  2
ENTITIES
  0
LINE
  8
0
 62
     0
 10
0.0950846
 20
53.8797
 30
0.0
 11
82.2949
 21
53.8797
 31
0.0
  0
LINE
  8
0
 62
     0
 10
82.2949
 20
53.8797
 30
0.0
 11
82.2949
 21
0.254937
 31
0.0
  0
LINE
  8
0
 62
     0
 10
82.2949
 20
0.254937
 30
0.0
 11
0.0950846
 21
0.254937
 31
0.0
  0
LINE
  8
0
 62
     0
 10
0.0950846
 20
0.254937
 30
0.0
 11
0.0950846
 21
53.8797
 31
0.0
  0
LINE
  8
0
 62
     0
 10
31.1699
 20
38.4059
 30
0.0
 11
31.1699
 21
37.5818
 31
0.0
  0
LINE
  8
0
 62
     0
 10
31.1699
 20
37.5818
 30
0.0
 11
24.8998
 21
37.5818
 31
0.0
  0
LINE
  8
0
 62
     0
 10
24.8998
 20
37.5818
 30
0.0
 11
24.8998
 21
35.8567
 31
0.0
  0
LINE
  8
0
 62
     0
 10
24.8998
 20
35.8567
 30
0.0
 11
23.6995
 21
35.8567
 31
0.0
  0
LINE
  8
0
 62
     0
 10
23.6995
 20
35.8567
 30
0.0
 11
23.6995
 21
32.5562
 31
0.0
  0
LINE
  8
0
 62
     0
 10
23.6995
 20
32.5562
 30
0.0
 11
24.8998
 21
32.5562
 31
0.0
  0
LINE
  8
0
 62
     0
 10
24.8998
 20
32.5562
 30
0.0
 11
24.8998
 21
30.8308
 31
0.0
  0
LINE
  8
0
 62
     0
 10
24.8998
 20
30.8308
 30
0.0
 11
29.3701
 21
30.8308
 31
0.0
  0
LINE
  8
0
 62
     0
 10
29.3701
 20
30.8308
 30
0.0
 11
29.3701
 21
29.3067
 31
0.0
  0
LINE
  8
0
 62
     0
 10
29.3701
 20
29.3067
 30
0.0
 11
24.6696
 21
29.3067
 31
0.0
  0
LINE
  8
0
 62
     0
 10
24.6696
 20
29.3067
 30
0.0
 11
24.6696
 21
15.3059
 31
0.0
  0
LINE
  8
0
 62
     0
 10
24.6696
 20
15.3059
 30
0.0
 11
29.3701
 21
15.3059
 31
0.0
  0
LINE
  8
0
 62
     0
 10
29.3701
 20
15.3059
 30
0.0
 11
29.3701
 21
13.7818
 31
0.0
  0
LINE
  8
0
 62
     0
 10
29.3701
 20
13.7818
 30
0.0
 11
24.8998
 21
13.7818
 31
0.0
  0
LINE
  8
0
 62
     0
 10
24.8998
 20
13.7818
 30
0.0
 11
24.8998
 21
12.0565
 31
0.0
  0
LINE
  8
0
 62
     0
 10
24.8998
 20
12.0565
 30
0.0
 11
23.6995
 21
12.0565
 31
0.0
  0
LINE
  8
0
 62
     0
 10
23.6995
 20
12.0565
 30
0.0
 11
23.6995
 21
8.75605
 31
0.0
  0
LINE
  8
0
 62
     0
 10
23.6995
 20
8.75605
 30
0.0
 11
24.8998
 21
8.75605
 31
0.0
  0
LINE
  8
0
 62
     0
 10
24.8998
 20
8.75605
 30
0.0
 11
24.8998
 21
7.03213
 31
0.0
  0
LINE
  8
0
 62
     0
 10
24.8998
 20
7.03213
 30
0.0
 11
31.1699
 21
7.03213
 31
0.0
  0
LINE
  8
0
 62
     0
 10
31.1699
 20
7.03213
 30
0.0
 11
31.1699
 21
6.20529
 31
0.0
  0
LINE
  8
0
 62
     0
 10
31.1699
 20
6.20529
 30
0.0
 11
33.97
 21
6.20529
 31
0.0
  0
LINE
  8
0
 62
     0
 10
33.97
 20
6.20529
 30
0.0
 11
33.97
 21
7.03213
 31
0.0
  0
LINE
  8
0
 62
     0
 10
33.97
 20
7.03213
 30
0.0
 11
37.2001
 21
7.03213
 31
0.0
  0
LINE
  8
0
 62
     0
 10
37.2001
 20
7.03213
 30
0.0
 11
37.2001
 21
13.7818
 31
0.0
  0
LINE
  8
0
 62
     0
 10
37.2001
 20
13.7818
 30
0.0
 11
33.97
 21
13.7818
 31
0.0
  0
LINE
  8
0
 62
     0
 10
33.97
 20
13.7818
 30
0.0
 11
33.97
 21
15.3059
 31
0.0
  0
LINE
  8
0
 62
     0
 10
33.97
 20
15.3059
 30
0.0
 11
38.669
 21
15.3059
 31
0.0
  0
LINE
  8
0
 62
     0
 10
38.669
 20
15.3059
 30
0.0
 11
38.669
 21
29.3067
 31
0.0
  0
LINE
  8
0
 62
     0
 10
38.669
 20
29.3067
 30
0.0
 11
33.97
 21
29.3067
 31
0.0
  0
LINE
  8
0
 62
     0
 10
33.97
 20
29.3067
 30
0.0
 11
33.97
 21
30.8308
 31
0.0
  0
LINE
  8
0
 62
     0
 10
33.97
 20
30.8308
 30
0.0
 11
37.2001
 21
30.8308
 31
0.0
  0
LINE
  8
0
 62
     0
 10
37.2001
 20
30.8308
 30
0.0
 11
37.2001
 21
37.5818
 31
0.0
  0
LINE
  8
0
 62
     0
 10
37.2001
 20
37.5818
 30
0.0
 11
33.97
 21
37.5818
 31
0.0
  0
LINE
  8
0
 62
     0
 10
33.97
 20
37.5818
 30
0.0
 11
33.97
 21
38.4059
 31
0.0
  0
LINE
  8
0
 62
     0
 10
33.97
 20
38.4059
 30
0.0
 11
31.1699
 21
38.4059
 31
0.0
  0
LINE
  8
0
 62
     0
 10
69.2697
 20
38.4059
 30
0.0
 11
69.2697
 21
37.5818
 31
0.0
  0
LINE
  8
0
 62
     0
 10
69.2697
 20
37.5818
 30
0.0
 11
62.9998
 21
37.5818
 31
0.0
  0
LINE
  8
0
 62
     0
 10
62.9998
 20
37.5818
 30
0.0
 11
62.9998
 21
35.8567
 31
0.0
  0
LINE
  8
0
 62
     0
 10
62.9998
 20
35.8567
 30
0.0
 11
61.7996
 21
35.8567
 31
0.0
  0
LINE
  8
0
 62
     0
 10
61.7996
 20
35.8567
 30
0.0
 11
61.7996
 21
32.5562
 31
0.0
  0
LINE
  8
0
 62
     0
 10
61.7996
 20
32.5562
 30
0.0
 11
62.9998
 21
32.5562
 31
0.0
  0
LINE
  8
0
 62
     0
 10
62.9998
 20
32.5562
 30
0.0
 11
62.9998
 21
30.8308
 31
0.0
  0
LINE
  8
0
 62
     0
 10
62.9998
 20
30.8308
 30
0.0
 11
67.4702
 21
30.8308
 31
0.0
  0
LINE
  8
0
 62
     0
 10
67.4702
 20
30.8308
 30
0.0
 11
67.4702
 21
29.3067
 31
0.0
  0
LINE
  8
0
 62
     0
 10
67.4702
 20
29.3067
 30
0.0
 11
62.7697
 21
29.3067
 31
0.0
  0
LINE
  8
0
 62
     0
 10
62.7697
 20
29.3067
 30
0.0
 11
62.7697
 21
15.3059
 31
0.0
  0
LINE
  8
0
 62
     0
 10
62.7697
 20
15.3059
 30
0.0
 11
67.4702
 21
15.3059
 31
0.0
  0
LINE
  8
0
 62
     0
 10
67.4702
 20
15.3059
 30
0.0
 11
67.4702
 21
13.7818
 31
0.0
  0
LINE
  8
0
 62
     0
 10
67.4702
 20
13.7818
 30
0.0
 11
62.9998
 21
13.7818
 31
0.0
  0
LINE
  8
0
 62
     0
 10
62.9998
 20
13.7818
 30
0.0
 11
62.9998
 21
12.0565
 31
0.0
  0
LINE
  8
0
 62
     0
 10
62.9998
 20
12.0565
 30
0.0
 11
61.7996
 21
12.0565
 31
0.0
  0
LINE
  8
0
 62
     0
 10
61.7996
 20
12.0565
 30
0.0
 11
61.7996
 21
8.75605
 31
0.0
  0
LINE
  8
0
 62
     0
 10
61.7996
 20
8.75605
 30
0.0
 11
62.9998
 21
8.75605
 31
0.0
  0
LINE
  8
0
 62
     0
 10
62.9998
 20
8.75605
 30
0.0
 11
62.9998
 21
7.03213
 31
0.0
  0
LINE
  8
0
 62
     0
 10
62.9998
 20
7.03213
 30
0.0
 11
69.2697
 21
7.03213
 31
0.0
  0
LINE
  8
0
 62
     0
 10
69.2697
 20
7.03213
 30
0.0
 11
69.2697
 21
6.20529
 31
0.0
  0
LINE
  8
0
 62
     0
 10
69.2697
 20
6.20529
 30
0.0
 11
72.07
 21
6.20529
 31
0.0
  0
LINE
  8
0
 62
     0
 10
72.07
 20
6.20529
 30
0.0
 11
72.07
 21
7.03213
 31
0.0
  0
LINE
  8
0
 62
     0
 10
72.07
 20
7.03213
 30
0.0
 11
75.3001
 21
7.03213
 31
0.0
  0
LINE
  8
0
 62
     0
 10
75.3001
 20
7.03213
 30
0.0
 11
75.3001
 21
13.7818
 31
0.0
  0
LINE
  8
0
 62
     0
 10
75.3001
 20
13.7818
 30
0.0
 11
72.07
 21
13.7818
 31
0.0
  0
LINE
  8
0
 62
     0
 10
72.07
 20
13.7818
 30
0.0
 11
72.07
 21
15.3059
 31
0.0
  0
LINE
  8
0
 62
     0
 10
72.07
 20
15.3059
 30
0.0
 11
76.769
 21
15.3059
 31
0.0
  0
LINE
  8
0
 62
     0
 10
76.769
 20
15.3059
 30
0.0
 11
76.769
 21
29.3067
 31
0.0
  0
LINE
  8
0
 62
     0
 10
76.769
 20
29.3067
 30
0.0
 11
72.07
 21
29.3067
 31
0.0
  0
LINE
  8
0
 62
     0
 10
72.07
 20
29.3067
 30
0.0
 11
72.07
 21
30.8308
 31
0.0
  0
LINE
  8
0
 62
     0
 10
72.07
 20
30.8308
 30
0.0
 11
75.3001
 21
30.8308
 31
0.0
  0
LINE
  8
0
 62
     0
 10
75.3001
 20
30.8308
 30
0.0
 11
75.3001
 21
37.5818
 31
0.0
  0
LINE
  8
0
 62
     0
 10
75.3001
 20
37.5818
 30
0.0
 11
72.07
 21
37.5818
 31
0.0
  0
LINE
  8
0
 62
     0
 10
72.07
 20
37.5818
 30
0.0
 11
72.07
 21
38.4059
 31
0.0
  0
LINE
  8
0
 62
     0
 10
72.07
 20
38.4059
 30
0.0
 11
69.2697
 21
38.4059
 31
0.0
  0
LINE
  8
0
 62
     0
 10
12.1199
 20
47.9309
 30
0.0
 11
12.1199
 21
47.1068
 31
0.0
  0
LINE
  8
0
 62
     0
 10
12.1199
 20
47.1068
 30
0.0
 11
5.84839
 21
47.1068
 31
0.0
  0
LINE
  8
0
 62
     0
 10
5.84839
 20
47.1068
 30
0.0
 11
5.84839
 21
45.3817
 31
0.0
  0
LINE
  8
0
 62
     0
 10
5.84839
 20
45.3817
 30
0.0
 11
4.64813
 21
45.3817
 31
0.0
  0
LINE
  8
0
 62
     0
 10
4.64813
 20
45.3817
 30
0.0
 11
4.64813
 21
42.0811
 31
0.0
  0
LINE
  8
0
 62
     0
 10
4.64813
 20
42.0811
 30
0.0
 11
5.84839
 21
42.0811
 31
0.0
  0
LINE
  8
0
 62
     0
 10
5.84839
 20
42.0811
 30
0.0
 11
5.84839
 21
40.356
 31
0.0
  0
LINE
  8
0
 62
     0
 10
5.84839
 20
40.356
 30
0.0
 11
10.3188
 21
40.356
 31
0.0
  0
LINE
  8
0
 62
     0
 10
10.3188
 20
40.356
 30
0.0
 11
10.3188
 21
38.8317
 31
0.0
  0
LINE
  8
0
 62
     0
 10
10.3188
 20
38.8317
 30
0.0
 11
5.61827
 21
38.8317
 31
0.0
  0
LINE
  8
0
 62
     0
 10
5.61827
 20
38.8317
 30
0.0
 11
5.61827
 21
24.8309
 31
0.0
  0
LINE
  8
0
 62
     0
 10
5.61827
 20
24.8309
 30
0.0
 11
10.3201
 21
24.8309
 31
0.0
  0
LINE
  8
0
 62
     0
 10
10.3201
 20
24.8309
 30
0.0
 11
10.3201
 21
23.3068
 31
0.0
  0
LINE
  8
0
 62
     0
 10
10.3201
 20
23.3068
 30
0.0
 11
5.84839
 21
23.3068
 31
0.0
  0
LINE
  8
0
 62
     0
 10
5.84839
 20
23.3068
 30
0.0
 11
5.84839
 21
21.5801
 31
0.0
  0
LINE
  8
0
 62
     0
 10
5.84839
 20
21.5801
 30
0.0
 11
4.64951
 21
21.5801
 31
0.0
  0
LINE
  8
0
 62
     0
 10
4.64951
 20
21.5801
 30
0.0
 11
4.64951
 21
18.2811
 31
0.0
  0
LINE
  8
0
 62
     0
 10
4.64951
 20
18.2811
 30
0.0
 11
5.84839
 21
18.2811
 31
0.0
  0
LINE
  8
0
 62
     0
 10
5.84839
 20
18.2811
 30
0.0
 11
5.84839
 21
16.5571
 31
0.0
  0
LINE
  8
0
 62
     0
 10
5.84839
 20
16.5571
 30
0.0
 11
12.1199
 21
16.5571
 31
0.0
  0
LINE
  8
0
 62
     0
 10
12.1199
 20
16.5571
 30
0.0
 11
12.1199
 21
15.7303
 31
0.0
  0
LINE
  8
0
 62
     0
 10
12.1199
 20
15.7303
 30
0.0
 11
14.92
 21
15.7303
 31
0.0
  0
LINE
  8
0
 62
     0
 10
14.92
 20
15.7303
 30
0.0
 11
14.92
 21
16.5571
 31
0.0
  0
LINE
  8
0
 62
     0
 10
14.92
 20
16.5571
 30
0.0
 11
18.1501
 21
16.5571
 31
0.0
  0
LINE
  8
0
 62
     0
 10
18.1501
 20
16.5571
 30
0.0
 11
18.1501
 21
23.3068
 31
0.0
  0
LINE
  8
0
 62
     0
 10
18.1501
 20
23.3068
 30
0.0
 11
14.92
 21
23.3068
 31
0.0
  0
LINE
  8
0
 62
     0
 10
14.92
 20
23.3068
 30
0.0
 11
14.92
 21
24.8309
 31
0.0
  0
LINE
  8
0
 62
     0
 10
14.92
 20
24.8309
 30
0.0
 11
19.6191
 21
24.8309
 31
0.0
  0
LINE
  8
0
 62
     0
 10
19.6191
 20
24.8309
 30
0.0
 11
19.6191
 21
38.8317
 31
0.0
  0
LINE
  8
0
 62
     0
 10
19.6191
 20
38.8317
 30
0.0
 11
14.92
 21
38.8317
 31
0.0
  0
LINE
  8
0
 62
     0
 10
14.92
 20
38.8317
 30
0.0
 11
14.92
 21
40.356
 31
0.0
  0
LINE
  8
0
 62
     0
 10
14.92
 20
40.356
 30
0.0
 11
18.1501
 21
40.356
 31
0.0
  0
LINE
  8
0
 62
     0
 10
18.1501
 20
40.356
 30
0.0
 11
18.1501
 21
47.1068
 31
0.0
  0
LINE
  8
0
 62
     0
 10
18.1501
 20
47.1068
 30
0.0
 11
14.9187
 21
47.1068
 31
0.0
  0
LINE
  8
0
 62
     0
 10
14.9187
 20
47.1068
 30
0.0
 11
14.9187
 21
47.9309
 31
0.0
  0
LINE
  8
0
 62
     0
 10
14.9187
 20
47.9309
 30
0.0
 11
12.1199
 21
47.9309
 31
0.0
  0
LINE
  8
0
 62
     0
 10
50.2197
 20
47.9309
 30
0.0
 11
50.2197
 21
47.1068
 31
0.0
  0
LINE
  8
0
 62
     0
 10
50.2197
 20
47.1068
 30
0.0
 11
43.9498
 21
47.1068
 31
0.0
  0
LINE
  8
0
 62
     0
 10
43.9498
 20
47.1068
 30
0.0
 11
43.9498
 21
45.3817
 31
0.0
  0
LINE
  8
0
 62
     0
 10
43.9498
 20
45.3817
 30
0.0
 11
42.7496
 21
45.3817
 31
0.0
  0
LINE
  8
0
 62
     0
 10
42.7496
 20
45.3817
 30
0.0
 11
42.7496
 21
42.0811
 31
0.0
  0
LINE
  8
0
 62
     0
 10
42.7496
 20
42.0811
 30
0.0
 11
43.9498
 21
42.0811
 31
0.0
  0
LINE
  8
0
 62
     0
 10
43.9498
 20
42.0811
 30
0.0
 11
43.9498
 21
40.356
 31
0.0
  0
LINE
  8
0
 62
     0
 10
43.9498
 20
40.356
 30
0.0
 11
48.4202
 21
40.356
 31
0.0
  0
LINE
  8
0
 62
     0
 10
48.4202
 20
40.356
 30
0.0
 11
48.4202
 21
38.8317
 31
0.0
  0
LINE
  8
0
 62
     0
 10
48.4202
 20
38.8317
 30
0.0
 11
43.7198
 21
38.8317
 31
0.0
  0
LINE
  8
0
 62
     0
 10
43.7198
 20
38.8317
 30
0.0
 11
43.7198
 21
24.8309
 31
0.0
  0
LINE
  8
0
 62
     0
 10
43.7198
 20
24.8309
 30
0.0
 11
48.4202
 21
24.8309
 31
0.0
  0
LINE
  8
0
 62
     0
 10
48.4202
 20
24.8309
 30
0.0
 11
48.4202
 21
23.3068
 31
0.0
  0
LINE
  8
0
 62
     0
 10
48.4202
 20
23.3068
 30
0.0
 11
43.9498
 21
23.3068
 31
0.0
  0
LINE
  8
0
 62
     0
 10
43.9498
 20
23.3068
 30
0.0
 11
43.9498
 21
21.5801
 31
0.0
  0
LINE
  8
0
 62
     0
 10
43.9498
 20
21.5801
 30
0.0
 11
42.7496
 21
21.5801
 31
0.0
  0
LINE
  8
0
 62
     0
 10
42.7496
 20
21.5801
 30
0.0
 11
42.7496
 21
18.2811
 31
0.0
  0
LINE
  8
0
 62
     0
 10
42.7496
 20
18.2811
 30
0.0
 11
43.9498
 21
18.2811
 31
0.0
  0
LINE
  8
0
 62
     0
 10
43.9498
 20
18.2811
 30
0.0
 11
43.9498
 21
16.5571
 31
0.0
  0
LINE
  8
0
 62
     0
 10
43.9498
 20
16.5571
 30
0.0
 11
50.2197
 21
16.5571
 31
0.0
  0
LINE
  8
0
 62
     0
 10
50.2197
 20
16.5571
 30
0.0
 11
50.2197
 21
15.7303
 31
0.0
  0
LINE
  8
0
 62
     0
 10
50.2197
 20
15.7303
 30
0.0
 11
53.02
 21
15.7303
 31
0.0
  0
LINE
  8
0
 62
     0
 10
53.02
 20
15.7303
 30
0.0
 11
53.02
 21
16.5571
 31
0.0
  0
LINE
  8
0
 62
     0
 10
53.02
 20
16.5571
 30
0.0
 11
56.2501
 21
16.5571
 31
0.0
  0
LINE
  8
0
 62
     0
 10
56.2501
 20
16.5571
 30
0.0
 11
56.2501
 21
23.3068
 31
0.0
  0
LINE
  8
0
 62
     0
 10
56.2501
 20
23.3068
 30
0.0
 11
53.02
 21
23.3068
 31
0.0
  0
LINE
  8
0
 62
     0
 10
53.02
 20
23.3068
 30
0.0
 11
53.02
 21
24.8309
 31
0.0
  0
LINE
  8
0
 62
     0
 10
53.02
 20
24.8309
 30
0.0
 11
57.719
 21
24.8309
 31
0.0
  0
LINE
  8
0
 62
     0
 10
57.719
 20
24.8309
 30
0.0
 11
57.719
 21
38.8317
 31
0.0
  0
LINE
  8
0
 62
     0
 10
57.719
 20
38.8317
 30
0.0
 11
53.02
 21
38.8317
 31
0.0
  0
LINE
  8
0
 62
     0
 10
53.02
 20
38.8317
 30
0.0
 11
53.02
 21
40.356
 31
0.0
  0
LINE
  8
0
 62
     0
 10
53.02
 20
40.356
 30
0.0
 11
56.2501
 21
40.356
 31
0.0
  0
LINE
  8
0
 62
     0
 10
56.2501
 20
40.356
 30
0.0
 11
56.2501
 21
47.1068
 31
0.0
  0
LINE
  8
0
 62
     0
 10
56.2501
 20
47.1068
 30
0.0
 11
53.02
 21
47.1068
 31
0.0
  0
LINE
  8
0
 62
     0
 10
53.02
 20
47.1068
 30
0.0
 11
53.02
 21
47.9309
 31
0.0
  0
LINE
  8
0
 62
     0
 10
53.02
 20
47.9309
 30
0.0
 11
50.2197
 21
47.9309
 31
0.0
  0
ENDSEC
  0
EOF
